<?xml version="1.0" encoding="UTF-8" standalone="no"?>
<!DOCTYPE svg PUBLIC "-//W3C//DTD SVG 1.1//EN" "http://www.w3.org/Graphics/SVG/1.1/DTD/svg11.dtd">
<svg xmlns="http://www.w3.org/2000/svg" version="1.1" viewBox="0 0 438 238" width="438.0pt" height="238.0pt" xmlns:xlink="http://www.w3.org/1999/xlink">
<defs>
<path d="M 0.00 0.00 L 438.00 0.00 L 438.00 238.00 L 0.00 238.00 L 0.00 205.00 C 140.67 205.00 281.33 205.00 422.00 205.00 C 422.00 168.67 422.00 132.33 422.00 96.00 C 281.33 96.00 140.67 96.00 0.00 96.00 L 0.00 0.00 Z" id="p0" />
<path d="M 0.00 96.00 C 140.67 96.00 281.33 96.00 422.00 96.00 C 422.00 132.33 422.00 168.67 422.00 205.00 C 281.33 205.00 140.67 205.00 0.00 205.00 L 0.00 96.00 Z M 18.70 106.75 C 17.32 106.99 15.89 107.17 14.56 107.60 C 13.07 108.52 13.16 111.12 12.74 112.66 C 10.34 113.31 9.57 113.12 8.60 115.61 C 10.06 115.79 11.53 115.96 13.00 116.12 C 13.00 117.95 13.00 119.79 13.00 121.62 C 10.53 122.29 9.56 121.99 8.60 124.61 C 9.98 124.78 11.37 124.93 12.76 125.07 C 13.01 126.76 13.17 128.60 13.76 130.21 C 15.36 130.87 17.26 130.98 18.96 131.24 C 19.04 132.44 19.12 133.64 19.21 134.83 C 20.07 134.83 20.92 134.83 21.78 134.83 C 21.88 133.55 21.98 132.27 22.08 131.00 C 24.03 131.00 25.98 131.00 27.92 131.00 C 28.02 132.28 28.11 133.56 28.21 134.84 C 29.07 134.83 29.93 134.83 30.79 134.83 C 30.87 133.63 30.96 132.44 31.04 131.24 C 32.75 130.99 34.63 130.84 36.25 130.22 C 36.82 128.60 36.99 126.77 37.25 125.07 C 38.63 124.93 40.01 124.77 41.39 124.61 C 40.44 121.98 39.47 122.29 37.00 121.62 C 37.00 119.79 37.00 117.95 37.00 116.12 C 38.46 115.96 39.93 115.79 41.40 115.60 C 40.43 113.12 39.66 113.32 37.27 112.66 C 36.84 111.11 36.89 108.56 35.43 107.61 C 34.10 107.17 32.67 106.99 31.29 106.75 C 30.90 106.01 30.98 102.87 29.81 103.23 C 27.67 102.62 28.29 105.72 27.67 107.00 C 25.89 107.00 24.11 107.00 22.33 107.00 C 21.71 105.70 22.33 102.67 20.18 103.20 C 19.01 103.06 19.11 105.94 18.70 106.75 Z M 116.24 108.05 C 116.21 115.03 116.23 122.01 116.23 128.99 C 117.22 129.00 118.22 129.00 119.22 129.00 C 119.23 122.00 119.25 114.99 119.21 107.99 C 118.22 108.01 117.23 108.03 116.24 108.05 Z M 371.24 108.05 C 371.21 115.03 371.23 122.01 371.23 128.99 C 372.20 128.99 373.17 129.00 374.14 129.01 C 374.17 128.52 374.20 128.03 374.23 127.55 C 376.62 129.12 378.94 129.96 381.74 128.74 C 386.32 125.96 386.34 117.04 381.78 114.23 C 378.86 112.82 376.67 113.91 374.14 115.38 C 374.22 112.92 374.23 110.46 374.23 107.99 C 373.23 108.01 372.24 108.03 371.24 108.05 Z M 51.02 108.93 C 51.01 115.62 51.02 122.31 51.01 128.99 C 55.74 128.70 61.85 130.30 65.30 126.26 C 68.43 122.76 68.46 115.22 65.32 111.72 C 62.01 107.72 55.65 109.19 51.02 108.93 Z M 190.02 108.90 C 190.01 115.60 190.02 122.30 190.02 129.00 C 191.00 129.00 191.99 129.00 192.98 129.00 C 192.98 126.68 192.98 124.36 192.99 122.04 C 195.92 121.80 200.18 122.81 202.27 120.31 C 205.76 117.25 204.64 110.42 199.89 109.23 C 196.67 108.70 193.28 108.93 190.02 108.90 Z M 307.77 108.95 C 307.77 115.63 307.76 122.31 307.78 128.99 L 310.67 129.01 C 310.69 124.32 310.73 119.62 310.61 114.94 C 312.46 119.65 314.47 124.30 316.37 129.00 C 317.26 129.00 318.15 129.01 319.05 129.02 C 321.08 124.35 322.93 119.60 324.94 114.92 C 325.05 119.61 324.99 124.31 325.00 129.00 C 325.94 129.00 326.88 129.00 327.82 128.99 C 327.83 122.31 327.83 115.62 327.82 108.94 C 326.64 108.93 325.46 108.93 324.28 108.93 C 322.09 114.27 319.93 119.62 317.69 124.94 C 315.59 119.56 313.35 114.23 311.15 108.89 C 310.02 108.91 308.90 108.93 307.77 108.95 Z M 84.19 124.60 C 81.68 124.92 79.43 126.04 76.99 126.54 C 74.51 126.31 74.21 124.38 72.95 122.63 C 76.66 122.44 80.38 122.51 84.10 122.40 C 83.58 120.09 83.38 117.14 81.64 115.39 C 79.96 113.30 76.40 113.20 74.10 114.16 C 69.53 116.93 68.68 123.77 72.51 127.53 C 74.23 129.67 77.54 129.52 79.94 128.93 C 81.97 128.46 83.07 126.16 84.19 124.60 Z M 84.78 113.95 C 86.58 118.99 88.48 124.00 90.32 129.03 C 91.36 129.00 92.40 128.97 93.44 128.93 C 95.20 123.88 97.10 118.88 98.97 113.86 C 97.82 113.93 96.68 114.01 95.54 114.09 C 94.41 117.85 93.21 121.58 91.77 125.23 C 90.48 121.45 89.27 117.64 87.94 113.88 C 86.89 113.90 85.84 113.92 84.78 113.95 Z M 113.76 124.50 C 111.45 125.00 109.29 125.94 107.02 126.55 C 104.30 126.41 103.84 124.49 102.59 122.55 C 106.30 122.45 110.00 122.50 113.71 122.44 C 113.41 120.67 113.15 118.88 112.88 117.10 C 110.45 114.06 108.05 112.70 104.08 114.06 C 98.73 116.75 98.47 125.35 103.44 128.60 C 107.78 130.27 112.14 129.21 113.76 124.50 Z M 125.50 114.51 C 121.62 117.35 120.91 123.34 124.04 126.98 C 126.60 130.55 133.10 130.03 135.21 126.15 C 137.08 122.71 136.78 117.12 133.28 114.70 C 131.21 113.20 127.67 113.23 125.50 114.51 Z M 139.19 113.50 C 139.03 120.32 139.13 127.14 139.12 133.96 C 140.09 133.97 141.05 133.99 142.02 134.01 C 142.00 131.87 141.98 129.72 141.95 127.58 C 144.49 129.03 146.79 130.05 149.68 128.70 C 154.19 125.81 154.20 117.17 149.70 114.27 C 147.05 112.92 145.08 113.80 142.61 114.90 C 141.48 114.39 140.34 113.93 139.19 113.50 Z M 169.49 124.58 C 166.47 124.65 163.03 127.48 160.32 125.94 C 159.43 125.03 158.94 123.71 158.38 122.57 C 162.01 122.44 165.63 122.50 169.25 122.44 C 168.81 120.28 168.83 117.48 167.25 115.80 C 165.45 113.28 161.84 113.10 159.20 114.24 C 154.59 117.10 154.03 124.38 158.14 127.90 C 159.73 129.59 162.89 129.48 164.97 128.98 C 167.27 128.50 168.24 126.32 169.49 124.58 Z M 171.69 113.88 C 171.69 118.92 171.68 123.97 171.70 129.01 C 172.71 129.00 173.72 128.99 174.72 128.99 C 174.78 125.44 174.43 121.72 175.06 118.22 C 176.23 116.62 178.21 116.70 179.99 116.16 C 179.99 115.21 180.00 114.26 180.00 113.31 C 178.06 113.73 176.18 114.26 174.39 115.12 L 174.85 113.96 L 171.69 113.88 Z M 207.16 113.58 C 207.06 118.71 207.12 123.86 207.11 128.99 C 208.08 129.00 209.04 129.00 210.01 129.00 C 210.06 125.77 209.73 122.39 210.27 119.20 C 210.93 116.38 213.35 116.92 215.60 116.13 C 215.49 115.15 215.38 114.17 215.28 113.18 C 213.69 113.67 212.10 114.16 210.53 114.71 C 209.42 114.31 208.30 113.93 207.16 113.58 Z M 220.19 114.24 C 215.07 117.37 215.09 125.63 220.24 128.72 C 222.72 129.66 226.59 129.73 228.38 127.41 C 231.97 123.81 231.29 116.90 226.83 114.23 C 224.67 113.34 222.35 113.35 220.19 114.24 Z M 244.21 126.46 C 243.38 128.35 243.68 131.26 241.02 131.38 C 238.33 131.60 235.50 129.73 232.75 129.53 C 233.92 131.20 234.44 132.93 236.43 133.76 C 240.11 134.69 243.00 134.23 246.00 131.92 C 247.25 126.17 246.57 119.88 246.72 113.94 C 245.74 113.92 244.75 113.90 243.77 113.88 C 243.75 114.37 243.73 114.87 243.71 115.36 C 241.52 114.09 239.62 112.97 236.99 113.91 C 231.38 115.92 231.34 126.07 237.01 128.02 C 239.80 128.89 241.82 127.67 244.21 126.46 Z M 250.16 113.58 C 250.06 118.71 250.12 123.86 250.11 128.99 C 251.08 129.00 252.04 129.00 253.01 129.00 C 253.06 125.77 252.73 122.39 253.27 119.20 C 253.93 116.38 256.35 116.92 258.60 116.13 C 258.49 115.15 258.38 114.17 258.28 113.18 C 256.69 113.67 255.10 114.16 253.53 114.71 C 252.42 114.31 251.30 113.93 250.16 113.58 Z M 259.66 117.89 C 260.64 117.90 261.62 117.90 262.61 117.90 C 264.70 117.03 266.49 115.13 268.54 117.26 C 268.86 118.10 269.16 118.94 269.44 119.79 C 267.03 120.07 264.10 119.79 261.88 120.85 C 258.73 122.31 258.97 127.57 262.19 128.81 C 264.44 129.70 266.33 129.03 268.51 128.41 C 269.66 128.70 270.81 128.98 271.97 129.25 C 271.97 125.49 272.15 121.72 271.92 117.97 C 271.91 116.51 270.57 115.15 269.84 113.95 C 267.53 113.83 265.36 113.42 263.13 114.17 C 261.49 114.70 260.66 116.58 259.66 117.89 Z M 275.69 113.88 C 275.69 118.92 275.68 123.97 275.70 129.01 C 276.71 129.00 277.72 128.99 278.72 128.99 C 278.79 125.40 278.42 121.64 279.07 118.11 C 280.47 115.93 281.94 116.59 284.14 116.73 C 284.54 120.81 284.47 124.90 284.46 128.99 C 285.48 128.99 286.50 128.99 287.52 128.99 C 287.70 125.23 286.90 120.79 288.27 117.25 C 289.86 116.07 291.29 116.61 293.07 116.80 C 293.32 120.86 293.30 124.92 293.29 128.99 C 294.29 128.99 295.29 129.00 296.29 129.01 C 296.10 124.71 296.98 119.50 295.48 115.46 C 292.94 112.48 289.52 113.61 286.63 115.39 C 285.38 114.63 284.30 113.80 282.82 113.54 C 281.27 113.68 279.73 114.58 278.35 115.28 L 278.86 113.95 L 275.69 113.88 Z M 344.58 124.51 C 342.07 124.83 339.44 126.55 336.97 126.40 C 334.71 126.08 334.48 124.25 333.49 122.56 C 337.15 122.45 340.81 122.51 344.47 122.44 C 343.96 119.34 344.04 116.73 341.33 114.65 C 336.89 111.75 331.20 114.79 330.85 119.98 C 330.17 124.29 332.15 129.04 336.99 129.30 C 341.14 129.45 342.89 128.18 344.58 124.51 Z M 347.18 113.54 C 347.05 118.69 347.12 123.84 347.11 128.99 C 348.08 129.00 349.04 129.00 350.01 129.00 C 350.12 125.59 349.56 121.78 350.49 118.49 C 351.26 116.03 354.90 115.45 355.83 118.12 C 356.26 121.70 355.97 125.39 356.02 129.00 C 357.00 129.00 357.99 128.99 358.97 128.99 C 358.99 125.68 358.81 122.33 359.09 119.03 C 359.37 116.22 363.76 115.12 364.66 118.20 C 365.34 121.69 364.91 125.45 364.99 129.00 C 365.95 129.00 366.92 129.00 367.88 129.00 C 367.75 124.89 368.34 120.47 367.44 116.46 C 365.84 112.54 361.23 113.16 358.41 115.42 C 357.10 114.71 355.62 113.65 354.11 113.55 C 352.88 113.84 351.71 114.29 350.54 114.76 C 349.42 114.34 348.30 113.93 347.18 113.54 Z M 401.49 124.58 C 398.47 124.65 395.03 127.48 392.32 125.94 C 391.43 125.03 390.94 123.71 390.38 122.57 C 394.01 122.44 397.63 122.50 401.25 122.44 C 400.81 120.28 400.83 117.48 399.25 115.80 C 397.45 113.28 393.84 113.10 391.20 114.24 C 386.59 117.11 386.03 124.38 390.14 127.90 C 391.73 129.59 394.89 129.48 396.97 128.98 C 399.27 128.50 400.24 126.32 401.49 124.58 Z M 404.03 113.70 C 403.98 118.80 404.01 123.90 404.00 129.00 C 404.98 129.00 405.96 129.00 406.93 128.99 C 406.99 125.49 406.65 121.82 407.23 118.36 C 408.32 116.56 410.27 116.79 412.12 116.19 C 412.13 115.23 412.14 114.26 412.15 113.30 C 410.58 113.68 409.02 114.09 407.47 114.53 C 406.32 114.24 405.18 113.96 404.03 113.70 Z M 100.00 157.99 C 89.66 158.02 79.33 157.98 68.99 157.98 C 62.80 157.84 56.62 161.03 52.92 165.96 C 48.11 172.31 47.67 181.41 51.75 188.23 C 54.00 191.86 57.35 195.03 61.31 196.70 C 64.77 198.13 68.33 198.02 72.00 198.03 C 84.00 197.93 96.01 198.07 108.01 197.98 C 113.86 198.03 119.00 195.07 122.58 190.57 C 127.17 185.02 128.25 177.06 125.57 170.41 C 123.14 164.20 117.33 159.61 110.84 158.29 C 107.30 157.77 103.58 158.02 100.00 157.99 Z M 19.89 170.00 C 16.78 170.47 13.55 170.73 10.54 171.63 L 10.15 172.93 C 11.98 175.46 14.52 177.54 16.73 179.75 C 16.16 182.92 15.30 186.36 15.44 189.58 C 18.64 190.08 22.15 186.98 25.00 185.73 C 27.63 187.11 30.23 188.81 33.05 189.75 L 34.66 189.23 C 34.51 186.06 33.82 182.86 33.28 179.74 C 35.48 177.54 38.00 175.46 39.82 172.93 L 39.46 171.64 C 36.45 170.73 33.20 170.47 30.10 170.00 C 28.59 167.10 27.47 163.36 25.00 161.16 C 22.53 163.36 21.41 167.10 19.89 170.00 Z" id="p1" />
<path d="M 20.18 103.20 C 22.33 102.67 21.71 105.70 22.33 107.00 C 24.11 107.00 25.89 107.00 27.67 107.00 C 28.29 105.72 27.67 102.62 29.81 103.23 C 30.98 102.87 30.90 106.01 31.29 106.75 C 32.67 106.99 34.10 107.17 35.43 107.61 C 36.89 108.56 36.84 111.11 37.27 112.66 C 39.66 113.32 40.43 113.12 41.40 115.60 C 39.93 115.79 38.46 115.96 37.00 116.12 C 37.00 117.95 37.00 119.79 37.00 121.62 C 39.47 122.29 40.44 121.98 41.39 124.61 C 40.01 124.77 38.63 124.93 37.25 125.07 C 36.99 126.77 36.82 128.60 36.25 130.22 C 34.63 130.84 32.75 130.99 31.04 131.24 C 30.96 132.44 30.87 133.63 30.79 134.83 C 29.93 134.83 29.07 134.83 28.21 134.84 C 28.11 133.56 28.02 132.28 27.92 131.00 C 25.98 131.00 24.03 131.00 22.08 131.00 C 21.98 132.27 21.88 133.55 21.78 134.83 C 20.92 134.83 20.07 134.83 19.21 134.83 C 19.12 133.64 19.04 132.44 18.96 131.24 C 17.26 130.98 15.36 130.87 13.76 130.21 C 13.17 128.60 13.01 126.76 12.76 125.07 C 11.37 124.93 9.98 124.78 8.60 124.61 C 9.56 121.99 10.53 122.29 13.00 121.62 C 13.00 119.79 13.00 117.95 13.00 116.12 C 11.53 115.96 10.06 115.79 8.60 115.61 C 9.57 113.12 10.34 113.31 12.74 112.66 C 13.16 111.12 13.07 108.52 14.56 107.60 C 15.89 107.17 17.32 106.99 18.70 106.75 C 19.11 105.94 19.01 103.06 20.18 103.20 Z M 16.03 110.03 C 15.98 116.01 15.98 121.99 16.03 127.97 C 22.02 128.02 28.00 128.00 33.99 127.99 C 34.00 122.00 34.02 116.02 33.97 110.03 C 27.99 109.98 22.01 109.98 16.03 110.03 Z" id="p2" />
<path d="M 116.24 108.05 C 117.23 108.03 118.22 108.01 119.21 107.99 C 119.25 114.99 119.23 122.00 119.22 129.00 C 118.22 129.00 117.22 129.00 116.23 128.99 C 116.23 122.01 116.21 115.03 116.24 108.05 Z" id="p3" />
<path d="M 371.24 108.05 C 372.24 108.03 373.23 108.01 374.23 107.99 C 374.23 110.46 374.22 112.92 374.14 115.38 C 376.67 113.91 378.86 112.82 381.78 114.23 C 386.34 117.04 386.32 125.96 381.74 128.74 C 378.94 129.96 376.62 129.12 374.23 127.55 C 374.20 128.03 374.17 128.52 374.14 129.01 C 373.17 129.00 372.20 128.99 371.23 128.99 C 371.23 122.01 371.21 115.03 371.24 108.05 Z M 376.25 117.03 C 373.24 119.20 373.72 126.22 378.05 126.51 C 381.84 126.39 382.41 123.07 382.03 119.98 C 381.75 117.18 378.70 115.44 376.25 117.03 Z" id="p4" />
<path d="M 51.02 108.93 C 55.65 109.19 62.01 107.72 65.32 111.72 C 68.46 115.22 68.43 122.76 65.30 126.26 C 61.85 130.30 55.74 128.70 51.01 128.99 C 51.02 122.31 51.01 115.62 51.02 108.93 Z M 53.99 111.61 C 53.98 116.52 53.98 121.43 53.99 126.33 C 57.52 126.03 61.26 126.95 63.40 123.40 C 65.26 120.02 64.81 113.87 60.72 112.21 C 58.59 111.60 56.20 111.72 53.99 111.61 Z" id="p5" />
<path d="M 190.02 108.90 C 193.28 108.93 196.67 108.70 199.89 109.23 C 204.64 110.42 205.76 117.25 202.27 120.31 C 200.18 122.81 195.92 121.80 192.99 122.04 C 192.98 124.36 192.98 126.68 192.98 129.00 C 191.99 129.00 191.00 129.00 190.02 129.00 C 190.02 122.30 190.01 115.60 190.02 108.90 Z M 192.99 111.57 C 192.98 114.15 192.98 116.74 192.99 119.33 C 194.95 119.24 196.99 119.28 198.93 118.90 C 201.87 117.93 201.91 112.94 198.95 112.03 C 197.01 111.62 194.96 111.66 192.99 111.57 Z" id="p6" />
<path d="M 307.77 108.95 C 308.90 108.93 310.02 108.91 311.15 108.89 C 313.35 114.23 315.59 119.56 317.69 124.94 C 319.93 119.62 322.09 114.27 324.28 108.93 C 325.46 108.93 326.64 108.93 327.82 108.94 C 327.83 115.62 327.83 122.31 327.82 128.99 C 326.88 129.00 325.94 129.00 325.00 129.00 C 324.99 124.31 325.05 119.61 324.94 114.92 C 322.93 119.60 321.08 124.35 319.05 129.02 C 318.15 129.01 317.26 129.00 316.37 129.00 C 314.47 124.30 312.46 119.65 310.61 114.94 C 310.73 119.62 310.69 124.32 310.67 129.01 L 307.78 128.99 C 307.76 122.31 307.77 115.63 307.77 108.95 Z" id="p7" />
<path d="M 16.03 110.03 C 22.01 109.98 27.99 109.98 33.97 110.03 C 34.02 116.02 34.00 122.00 33.99 127.99 C 28.00 128.00 22.02 128.02 16.03 127.97 C 15.98 121.99 15.98 116.01 16.03 110.03 Z M 19.16 124.86 C 23.07 125.05 26.93 125.05 30.83 124.86 C 30.98 121.09 31.34 117.09 30.64 113.37 C 27.19 112.75 22.81 112.75 19.36 113.37 C 18.66 117.09 19.02 121.09 19.16 124.86 Z" id="p8" />
<path d="M 53.99 111.61 C 56.20 111.72 58.59 111.60 60.72 112.21 C 64.81 113.87 65.26 120.02 63.40 123.40 C 61.26 126.95 57.52 126.03 53.99 126.33 C 53.98 121.43 53.98 116.52 53.99 111.61 Z" id="p9" />
<path d="M 192.99 111.57 C 194.96 111.66 197.01 111.62 198.95 112.03 C 201.91 112.94 201.87 117.93 198.93 118.90 C 196.99 119.28 194.95 119.24 192.99 119.33 C 192.98 116.74 192.98 114.15 192.99 111.57 Z" id="p10" />
<path d="M 30.64 113.37 C 31.34 117.09 30.98 121.09 30.83 124.86 C 26.93 125.05 23.07 125.05 19.16 124.86 C 19.02 121.09 18.66 117.09 19.36 113.37 C 22.81 112.75 27.19 112.75 30.64 113.37 Z M 22.00 116.00 C 22.00 118.00 22.00 120.00 22.00 122.00 C 24.00 122.00 26.00 122.00 28.00 122.00 C 28.00 120.00 28.00 118.00 28.00 116.00 C 26.00 116.00 24.00 116.00 22.00 116.00 Z" id="p11" />
<path d="M 74.10 114.16 C 76.40 113.20 79.96 113.30 81.64 115.39 C 83.38 117.14 83.58 120.09 84.10 122.40 C 80.38 122.51 76.66 122.44 72.95 122.63 C 74.21 124.38 74.51 126.31 76.99 126.54 C 79.43 126.04 81.68 124.92 84.19 124.60 C 83.07 126.16 81.97 128.46 79.94 128.93 C 77.54 129.52 74.23 129.67 72.51 127.53 C 68.68 123.77 69.53 116.93 74.10 114.16 Z M 73.09 119.88 C 75.74 120.01 78.35 120.00 81.00 119.87 C 79.76 118.25 79.41 116.41 77.01 116.37 C 74.69 116.57 74.32 118.28 73.09 119.88 Z" id="p12" />
<path d="M 84.78 113.95 C 85.84 113.92 86.89 113.90 87.94 113.88 C 89.27 117.64 90.48 121.45 91.77 125.23 C 93.21 121.58 94.41 117.85 95.54 114.09 C 96.68 114.01 97.82 113.93 98.97 113.86 C 97.10 118.88 95.20 123.88 93.44 128.93 C 92.40 128.97 91.36 129.00 90.32 129.03 C 88.48 124.00 86.58 118.99 84.78 113.95 Z" id="p13" />
<path d="M 104.08 114.06 C 108.05 112.70 110.45 114.06 112.88 117.10 C 113.15 118.88 113.41 120.67 113.71 122.44 C 110.00 122.50 106.30 122.45 102.59 122.55 C 103.84 124.49 104.30 126.41 107.02 126.55 C 109.29 125.94 111.45 125.00 113.76 124.50 C 112.14 129.21 107.78 130.27 103.44 128.60 C 98.47 125.35 98.73 116.75 104.08 114.06 Z M 102.61 119.83 C 105.33 120.00 108.01 120.02 110.73 119.90 C 109.57 118.31 109.21 116.60 106.96 116.37 C 104.61 116.43 103.95 118.29 102.61 119.83 Z" id="p14" />
<path d="M 125.50 114.51 C 127.67 113.23 131.21 113.20 133.28 114.70 C 136.78 117.12 137.08 122.71 135.21 126.15 C 133.10 130.03 126.60 130.55 124.04 126.98 C 120.91 123.34 121.62 117.35 125.50 114.51 Z M 125.88 117.98 C 125.08 121.19 124.71 125.96 129.08 126.52 C 133.82 126.84 134.26 119.58 131.67 117.17 C 129.21 115.66 128.05 116.70 125.88 117.98 Z" id="p15" />
<path d="M 139.19 113.50 C 140.34 113.93 141.48 114.39 142.61 114.90 C 145.08 113.80 147.05 112.92 149.70 114.27 C 154.20 117.17 154.19 125.81 149.68 128.70 C 146.79 130.05 144.49 129.03 141.95 127.58 C 141.98 129.72 142.00 131.87 142.02 134.01 C 141.05 133.99 140.09 133.97 139.12 133.96 C 139.13 127.14 139.03 120.32 139.19 113.50 Z M 144.12 117.01 C 141.45 119.13 141.48 123.85 144.15 125.96 C 145.74 126.79 147.17 126.60 148.61 125.59 C 150.54 123.43 150.56 119.56 148.64 117.39 C 147.05 116.33 145.85 116.02 144.12 117.01 Z" id="p16" />
<path d="M 159.20 114.24 C 161.84 113.10 165.45 113.28 167.25 115.80 C 168.83 117.48 168.81 120.28 169.25 122.44 C 165.63 122.50 162.01 122.44 158.38 122.57 C 158.94 123.71 159.43 125.03 160.32 125.94 C 163.03 127.48 166.47 124.65 169.49 124.58 C 168.24 126.32 167.27 128.50 164.97 128.98 C 162.89 129.48 159.73 129.59 158.14 127.90 C 154.03 124.38 154.59 117.10 159.20 114.24 Z M 158.31 119.90 C 161.04 120.02 163.74 120.00 166.47 119.85 C 165.18 118.30 164.44 116.29 162.07 116.38 C 159.90 116.70 159.46 118.34 158.31 119.90 Z" id="p17" />
<path d="M 171.69 113.88 L 174.85 113.96 L 174.39 115.12 C 176.18 114.26 178.06 113.73 180.00 113.31 C 180.00 114.26 179.99 115.21 179.99 116.16 C 178.21 116.70 176.23 116.62 175.06 118.22 C 174.43 121.72 174.78 125.44 174.72 128.99 C 173.72 128.99 172.71 129.00 171.70 129.01 C 171.68 123.97 171.69 118.92 171.69 113.88 Z" id="p18" />
<path d="M 207.16 113.58 C 208.30 113.93 209.42 114.31 210.53 114.71 C 212.10 114.16 213.69 113.67 215.28 113.18 C 215.38 114.17 215.49 115.15 215.60 116.13 C 213.35 116.92 210.93 116.38 210.27 119.20 C 209.73 122.39 210.06 125.77 210.01 129.00 C 209.04 129.00 208.08 129.00 207.11 128.99 C 207.12 123.86 207.06 118.71 207.16 113.58 Z" id="p19" />
<path d="M 220.19 114.24 C 222.35 113.35 224.67 113.34 226.83 114.23 C 231.29 116.90 231.97 123.81 228.38 127.41 C 226.59 129.73 222.72 129.66 220.24 128.72 C 215.09 125.63 215.07 117.37 220.19 114.24 Z M 219.93 118.20 C 219.75 120.20 219.39 122.71 220.22 124.59 C 221.63 127.36 226.22 127.04 227.06 123.95 C 227.72 121.63 227.68 117.63 224.91 116.70 C 222.92 115.74 221.51 117.21 219.93 118.20 Z" id="p20" />
<path d="M 236.99 113.91 C 239.62 112.97 241.52 114.09 243.71 115.36 C 243.73 114.87 243.75 114.37 243.77 113.88 C 244.75 113.90 245.74 113.92 246.72 113.94 C 246.57 119.88 247.25 126.17 246.00 131.92 C 243.00 134.23 240.11 134.69 236.43 133.76 C 234.44 132.93 233.92 131.20 232.75 129.53 C 235.50 129.73 238.33 131.60 241.02 131.38 C 243.68 131.26 243.38 128.35 244.21 126.46 C 241.82 127.67 239.80 128.89 237.01 128.02 C 231.34 126.07 231.38 115.92 236.99 113.91 Z M 236.09 118.17 C 235.96 119.73 235.81 121.41 236.07 122.96 C 236.86 125.60 240.56 126.28 242.37 124.37 C 244.40 122.25 243.97 117.67 240.94 116.66 C 239.21 115.72 237.50 117.30 236.09 118.17 Z" id="p21" />
<path d="M 250.16 113.58 C 251.30 113.93 252.42 114.31 253.53 114.71 C 255.10 114.16 256.69 113.67 258.28 113.18 C 258.38 114.17 258.49 115.15 258.60 116.13 C 256.35 116.92 253.93 116.38 253.27 119.20 C 252.73 122.39 253.06 125.77 253.01 129.00 C 252.04 129.00 251.08 129.00 250.11 128.99 C 250.12 123.86 250.06 118.71 250.16 113.58 Z" id="p22" />
<path d="M 263.13 114.17 C 265.36 113.42 267.53 113.83 269.84 113.95 C 270.57 115.15 271.91 116.51 271.92 117.97 C 272.15 121.72 271.97 125.49 271.97 129.25 C 270.81 128.98 269.66 128.70 268.51 128.41 C 266.33 129.03 264.44 129.70 262.19 128.81 C 258.97 127.57 258.73 122.31 261.88 120.85 C 264.10 119.79 267.03 120.07 269.44 119.79 C 269.16 118.94 268.86 118.10 268.54 117.26 C 266.49 115.13 264.70 117.03 262.61 117.90 C 261.62 117.90 260.64 117.90 259.66 117.89 C 260.66 116.58 261.49 114.70 263.13 114.17 Z M 262.67 126.12 C 264.70 126.35 266.72 127.12 268.25 125.28 C 268.72 124.30 269.14 123.30 269.51 122.27 C 267.43 122.46 265.22 122.61 263.21 123.15 C 262.99 124.13 262.81 125.12 262.67 126.12 Z" id="p23" />
<path d="M 275.69 113.88 L 278.86 113.95 L 278.35 115.28 C 279.73 114.58 281.27 113.68 282.82 113.54 C 284.30 113.80 285.38 114.63 286.63 115.39 C 289.52 113.61 292.94 112.48 295.48 115.46 C 296.98 119.50 296.10 124.71 296.29 129.01 C 295.29 129.00 294.29 128.99 293.29 128.99 C 293.30 124.92 293.32 120.86 293.07 116.80 C 291.29 116.61 289.86 116.07 288.27 117.25 C 286.90 120.79 287.70 125.23 287.52 128.99 C 286.50 128.99 285.48 128.99 284.46 128.99 C 284.47 124.90 284.54 120.81 284.14 116.73 C 281.94 116.59 280.47 115.93 279.07 118.11 C 278.42 121.64 278.79 125.40 278.72 128.99 C 277.72 128.99 276.71 129.00 275.70 129.01 C 275.68 123.97 275.69 118.92 275.69 113.88 Z" id="p24" />
<path d="M 341.33 114.65 C 344.04 116.73 343.96 119.34 344.47 122.44 C 340.81 122.51 337.15 122.45 333.49 122.56 C 334.48 124.25 334.71 126.08 336.97 126.40 C 339.44 126.55 342.07 124.83 344.58 124.51 C 342.89 128.18 341.14 129.45 336.99 129.30 C 332.15 129.04 330.17 124.29 330.85 119.98 C 331.20 114.79 336.89 111.75 341.33 114.65 Z M 333.45 119.90 C 336.16 120.02 338.86 120.02 341.58 119.89 C 340.41 118.19 339.56 116.00 337.04 116.47 C 335.03 116.84 334.55 118.45 333.45 119.90 Z" id="p25" />
<path d="M 347.18 113.54 C 348.30 113.93 349.42 114.34 350.54 114.76 C 351.71 114.29 352.88 113.84 354.11 113.55 C 355.62 113.65 357.10 114.71 358.41 115.42 C 361.23 113.16 365.84 112.54 367.44 116.46 C 368.34 120.47 367.75 124.89 367.88 129.00 C 366.92 129.00 365.95 129.00 364.99 129.00 C 364.91 125.45 365.34 121.69 364.66 118.20 C 363.76 115.12 359.37 116.22 359.09 119.03 C 358.81 122.33 358.99 125.68 358.97 128.99 C 357.99 128.99 357.00 129.00 356.02 129.00 C 355.97 125.39 356.26 121.70 355.83 118.12 C 354.90 115.45 351.26 116.03 350.49 118.49 C 349.56 121.78 350.12 125.59 350.01 129.00 C 349.04 129.00 348.08 129.00 347.11 128.99 C 347.12 123.84 347.05 118.69 347.18 113.54 Z" id="p26" />
<path d="M 391.20 114.24 C 393.84 113.10 397.45 113.28 399.25 115.80 C 400.83 117.48 400.81 120.28 401.25 122.44 C 397.63 122.50 394.01 122.44 390.38 122.57 C 390.94 123.71 391.43 125.03 392.32 125.94 C 395.03 127.48 398.47 124.65 401.49 124.58 C 400.24 126.32 399.27 128.50 396.97 128.98 C 394.89 129.48 391.73 129.59 390.14 127.90 C 386.03 124.38 386.59 117.11 391.20 114.24 Z M 390.31 119.90 C 393.04 120.02 395.74 120.00 398.47 119.85 C 397.18 118.30 396.44 116.29 394.07 116.38 C 391.90 116.70 391.46 118.34 390.31 119.90 Z" id="p27" />
<path d="M 404.03 113.70 C 405.18 113.96 406.32 114.24 407.47 114.53 C 409.02 114.09 410.58 113.68 412.15 113.30 C 412.14 114.26 412.13 115.23 412.12 116.19 C 410.27 116.79 408.32 116.56 407.23 118.36 C 406.65 121.82 406.99 125.49 406.93 128.99 C 405.96 129.00 404.98 129.00 404.00 129.00 C 404.01 123.90 403.98 118.80 404.03 113.70 Z" id="p28" />
<path d="M 22.00 116.00 C 24.00 116.00 26.00 116.00 28.00 116.00 C 28.00 118.00 28.00 120.00 28.00 122.00 C 26.00 122.00 24.00 122.00 22.00 122.00 C 22.00 120.00 22.00 118.00 22.00 116.00 Z" id="p29" />
<path d="M 77.01 116.37 C 79.41 116.41 79.76 118.25 81.00 119.87 C 78.35 120.00 75.74 120.01 73.09 119.88 C 74.32 118.28 74.69 116.57 77.01 116.37 Z" id="p30" />
<path d="M 106.96 116.37 C 109.21 116.60 109.57 118.31 110.73 119.90 C 108.01 120.02 105.33 120.00 102.61 119.83 C 103.95 118.29 104.61 116.43 106.96 116.37 Z" id="p31" />
<path d="M 131.67 117.17 C 134.26 119.58 133.82 126.84 129.08 126.52 C 124.71 125.96 125.08 121.19 125.88 117.98 C 128.05 116.70 129.21 115.66 131.67 117.17 Z" id="p32" />
<path d="M 144.12 117.01 C 145.85 116.02 147.05 116.33 148.64 117.39 C 150.56 119.56 150.54 123.43 148.61 125.59 C 147.17 126.60 145.74 126.79 144.15 125.96 C 141.48 123.85 141.45 119.13 144.12 117.01 Z" id="p33" />
<path d="M 162.07 116.38 C 164.44 116.29 165.18 118.30 166.47 119.85 C 163.74 120.00 161.04 120.02 158.31 119.90 C 159.46 118.34 159.90 116.70 162.07 116.38 Z" id="p34" />
<path d="M 224.91 116.70 C 227.68 117.63 227.72 121.63 227.06 123.95 C 226.22 127.04 221.63 127.36 220.22 124.59 C 219.39 122.71 219.75 120.20 219.93 118.20 C 221.51 117.21 222.92 115.74 224.91 116.70 Z" id="p35" />
<path d="M 240.94 116.66 C 243.97 117.67 244.40 122.25 242.37 124.37 C 240.56 126.28 236.86 125.60 236.07 122.96 C 235.81 121.41 235.96 119.73 236.09 118.17 C 237.50 117.30 239.21 115.72 240.94 116.66 Z" id="p36" />
<path d="M 337.04 116.47 C 339.56 116.00 340.41 118.19 341.58 119.89 C 338.86 120.02 336.16 120.02 333.45 119.90 C 334.55 118.45 335.03 116.84 337.04 116.47 Z" id="p37" />
<path d="M 376.25 117.03 C 378.70 115.44 381.75 117.18 382.03 119.98 C 382.41 123.07 381.84 126.39 378.05 126.51 C 373.72 126.22 373.24 119.20 376.25 117.03 Z" id="p38" />
<path d="M 394.07 116.38 C 396.44 116.29 397.18 118.30 398.47 119.85 C 395.74 120.00 393.04 120.02 390.31 119.90 C 391.46 118.34 391.90 116.70 394.07 116.38 Z" id="p39" />
<path d="M 263.21 123.15 C 265.22 122.61 267.43 122.46 269.51 122.27 C 269.14 123.30 268.72 124.30 268.25 125.28 C 266.72 127.12 264.70 126.35 262.67 126.12 C 262.81 125.12 262.99 124.13 263.21 123.15 Z" id="p40" />
<path d="M 68.99 157.98 C 79.33 157.98 89.66 158.02 100.00 157.99 C 103.58 158.02 107.30 157.77 110.84 158.29 C 117.33 159.61 123.14 164.20 125.57 170.41 C 128.25 177.06 127.17 185.02 122.58 190.57 C 119.00 195.07 113.86 198.03 108.01 197.98 C 96.01 198.07 84.00 197.93 72.00 198.03 C 68.33 198.02 64.77 198.13 61.31 196.70 C 57.35 195.03 54.00 191.86 51.75 188.23 C 47.67 181.41 48.11 172.31 52.92 165.96 C 56.62 161.03 62.80 157.84 68.99 157.98 Z M 102.00 160.00 C 91.00 160.03 79.99 159.95 69.00 160.04 C 60.10 159.83 51.99 167.12 51.19 175.97 C 50.16 183.45 54.35 190.63 60.93 194.09 C 64.47 196.04 68.07 195.98 72.00 196.00 C 84.00 195.93 96.02 196.15 108.01 195.89 C 118.45 195.57 126.69 185.27 124.66 175.00 C 123.70 168.56 118.98 163.30 112.98 161.00 C 109.64 159.78 105.53 160.04 102.00 160.00 Z" id="p41" />
<path d="M 69.00 160.04 C 79.99 159.95 91.00 160.03 102.00 160.00 C 105.53 160.04 109.64 159.78 112.98 161.00 C 118.98 163.30 123.70 168.56 124.66 175.00 C 126.69 185.27 118.45 195.57 108.01 195.89 C 96.02 196.15 84.00 195.93 72.00 196.00 C 68.07 195.98 64.47 196.04 60.93 194.09 C 54.35 190.63 50.16 183.45 51.19 175.97 C 51.99 167.12 60.10 159.83 69.00 160.04 Z M 101.47 169.55 C 95.51 170.87 94.50 177.83 96.24 182.78 C 98.14 188.48 107.15 189.07 110.19 184.15 C 112.16 181.04 112.19 175.90 110.25 172.76 C 108.42 169.78 104.74 168.80 101.47 169.55 Z M 64.35 169.70 C 64.35 175.46 64.35 181.22 64.35 186.98 C 65.37 186.99 66.39 187.00 67.41 187.01 C 67.43 185.15 67.45 183.30 67.47 181.44 C 69.56 181.27 71.75 181.23 73.78 180.70 C 78.01 178.77 78.02 172.23 73.78 170.30 C 70.79 169.49 67.43 169.71 64.35 169.70 Z M 80.11 169.77 C 80.10 175.51 80.10 181.25 80.11 187.00 C 81.11 187.00 82.10 187.00 83.10 187.00 C 83.12 184.86 83.13 182.72 83.14 180.59 C 84.27 180.60 85.40 180.62 86.53 180.63 C 87.67 182.77 88.80 184.90 89.95 187.03 C 91.12 187.00 92.29 186.98 93.46 186.96 C 92.30 184.77 91.12 182.58 89.95 180.40 C 90.88 179.30 92.11 178.16 92.67 176.81 C 93.36 174.39 92.20 171.29 89.79 170.29 C 86.72 169.49 83.27 169.79 80.11 169.77 Z" id="p42" />
<path d="M 25.00 161.16 C 27.47 163.36 28.59 167.10 30.10 170.00 C 33.20 170.47 36.45 170.73 39.46 171.64 L 39.82 172.93 C 38.00 175.46 35.48 177.54 33.28 179.74 C 33.82 182.86 34.51 186.06 34.66 189.23 L 33.05 189.75 C 30.23 188.81 27.63 187.11 25.00 185.73 C 22.15 186.98 18.64 190.08 15.44 189.58 C 15.30 186.36 16.16 182.92 16.73 179.75 C 14.52 177.54 11.98 175.46 10.15 172.93 L 10.54 171.63 C 13.55 170.73 16.78 170.47 19.89 170.00 C 21.41 167.10 22.53 163.36 25.00 161.16 Z M 15.01 173.77 C 16.56 175.27 18.29 176.74 19.59 178.48 C 19.83 180.75 19.13 183.21 18.82 185.46 C 20.88 184.45 22.94 183.44 25.00 182.43 C 27.05 183.43 29.10 184.44 31.15 185.45 C 30.85 183.20 30.15 180.74 30.40 178.47 C 31.71 176.73 33.44 175.27 35.01 173.77 C 32.80 173.40 30.50 173.15 28.36 172.46 C 27.10 170.74 26.21 168.78 24.89 167.09 C 23.77 168.84 22.90 170.81 21.63 172.45 C 19.51 173.15 17.21 173.40 15.01 173.77 Z" id="p43" />
<path d="M 24.89 167.09 C 26.21 168.78 27.10 170.74 28.36 172.46 C 30.50 173.15 32.80 173.40 35.01 173.77 C 33.44 175.27 31.71 176.73 30.40 178.47 C 30.15 180.74 30.85 183.20 31.15 185.45 C 29.10 184.44 27.05 183.43 25.00 182.43 C 22.94 183.44 20.88 184.45 18.82 185.46 C 19.13 183.21 19.83 180.75 19.59 178.48 C 18.29 176.74 16.56 175.27 15.01 173.77 C 17.21 173.40 19.51 173.15 21.63 172.45 C 22.90 170.81 23.77 168.84 24.89 167.09 Z" id="p44" />
<path d="M 101.47 169.55 C 104.74 168.80 108.42 169.78 110.25 172.76 C 112.19 175.90 112.16 181.04 110.19 184.15 C 107.15 189.07 98.14 188.48 96.24 182.78 C 94.50 177.83 95.51 170.87 101.47 169.55 Z M 102.24 172.26 C 97.21 174.10 97.47 183.96 103.13 184.70 C 107.32 184.95 108.91 180.47 108.31 176.98 C 108.05 174.03 105.34 171.19 102.24 172.26 Z" id="p45" />
<path d="M 64.35 169.70 C 67.43 169.71 70.79 169.49 73.78 170.30 C 78.02 172.23 78.01 178.77 73.78 180.70 C 71.75 181.23 69.56 181.27 67.47 181.44 C 67.45 183.30 67.43 185.15 67.41 187.01 C 66.39 187.00 65.37 186.99 64.35 186.98 C 64.35 181.22 64.35 175.46 64.35 169.70 Z M 67.52 172.31 C 67.42 174.49 67.45 176.66 67.48 178.84 C 69.19 178.62 71.29 178.74 72.82 177.90 C 74.36 176.37 74.34 174.64 72.82 173.11 C 71.34 172.23 69.20 172.39 67.52 172.31 Z" id="p46" />
<path d="M 80.11 169.77 C 83.27 169.79 86.72 169.49 89.79 170.29 C 92.20 171.29 93.36 174.39 92.67 176.81 C 92.11 178.16 90.88 179.30 89.95 180.40 C 91.12 182.58 92.30 184.77 93.46 186.96 C 92.29 186.98 91.12 187.00 89.95 187.03 C 88.80 184.90 87.67 182.77 86.53 180.63 C 85.40 180.62 84.27 180.60 83.14 180.59 C 83.13 182.72 83.12 184.86 83.10 187.00 C 82.10 187.00 81.11 187.00 80.11 187.00 C 80.10 181.25 80.10 175.51 80.11 169.77 Z M 83.06 178.21 C 85.39 177.76 89.61 178.53 89.78 175.12 C 89.29 171.74 85.81 172.38 83.27 172.32 C 83.07 174.27 83.09 176.25 83.06 178.21 Z" id="p47" />
<path d="M 72.82 173.11 C 74.34 174.64 74.36 176.37 72.82 177.90 C 71.29 178.74 69.19 178.62 67.48 178.84 C 67.45 176.66 67.42 174.49 67.52 172.31 C 69.20 172.39 71.34 172.23 72.82 173.11 Z" id="p48" />
<path d="M 83.27 172.32 C 85.81 172.38 89.29 171.74 89.78 175.12 C 89.61 178.53 85.39 177.76 83.06 178.21 C 83.09 176.25 83.07 174.27 83.27 172.32 Z" id="p49" />
<path d="M 102.24 172.26 C 105.34 171.19 108.05 174.03 108.31 176.98 C 108.91 180.47 107.32 184.95 103.13 184.70 C 97.47 183.96 97.21 174.10 102.24 172.26 Z" id="p50" />
</defs>
<g stroke-width="10pt">
<use stroke="#ffffff" xlink:href="#p0" />
<use stroke="#010408" xlink:href="#p1" />
<use stroke="#b8bdc7" xlink:href="#p2" />
<use stroke="#ffffff" xlink:href="#p3" />
<use stroke="#ffffff" xlink:href="#p4" />
<use stroke="#ffffff" xlink:href="#p5" />
<use stroke="#ffffff" xlink:href="#p6" />
<use stroke="#ffffff" xlink:href="#p7" />
<use stroke="#010408" xlink:href="#p8" />
<use stroke="#010408" xlink:href="#p9" />
<use stroke="#010408" xlink:href="#p10" />
<use stroke="#b8bdc7" xlink:href="#p11" />
<use stroke="#ffffff" xlink:href="#p12" />
<use stroke="#ffffff" xlink:href="#p13" />
<use stroke="#ffffff" xlink:href="#p14" />
<use stroke="#ffffff" xlink:href="#p15" />
<use stroke="#ffffff" xlink:href="#p16" />
<use stroke="#ffffff" xlink:href="#p17" />
<use stroke="#ffffff" xlink:href="#p18" />
<use stroke="#ffffff" xlink:href="#p19" />
<use stroke="#ffffff" xlink:href="#p20" />
<use stroke="#ffffff" xlink:href="#p21" />
<use stroke="#ffffff" xlink:href="#p22" />
<use stroke="#ffffff" xlink:href="#p23" />
<use stroke="#ffffff" xlink:href="#p24" />
<use stroke="#ffffff" xlink:href="#p25" />
<use stroke="#ffffff" xlink:href="#p26" />
<use stroke="#ffffff" xlink:href="#p27" />
<use stroke="#ffffff" xlink:href="#p28" />
<use stroke="#010408" xlink:href="#p29" />
<use stroke="#010408" xlink:href="#p30" />
<use stroke="#010408" xlink:href="#p31" />
<use stroke="#010408" xlink:href="#p32" />
<use stroke="#010408" xlink:href="#p33" />
<use stroke="#010408" xlink:href="#p34" />
<use stroke="#010408" xlink:href="#p35" />
<use stroke="#010408" xlink:href="#p36" />
<use stroke="#010408" xlink:href="#p37" />
<use stroke="#010408" xlink:href="#p38" />
<use stroke="#010408" xlink:href="#p39" />
<use stroke="#010408" xlink:href="#p40" />
<use stroke="#a279e5" xlink:href="#p41" />
<use stroke="#010408" xlink:href="#p42" />
<use stroke="#b8bdc7" xlink:href="#p43" />
<use stroke="#010408" xlink:href="#p44" />
<use stroke="#ccadf9" xlink:href="#p45" />
<use stroke="#ccadf9" xlink:href="#p46" />
<use stroke="#ccadf9" xlink:href="#p47" />
<use stroke="#010408" xlink:href="#p48" />
<use stroke="#010408" xlink:href="#p49" />
<use stroke="#010408" xlink:href="#p50" />
</g>
<g>
<use fill="#ffffff" xlink:href="#p0" />
<use fill="#010408" xlink:href="#p1" />
<use fill="#b8bdc7" xlink:href="#p2" />
<use fill="#ffffff" xlink:href="#p3" />
<use fill="#ffffff" xlink:href="#p4" />
<use fill="#ffffff" xlink:href="#p5" />
<use fill="#ffffff" xlink:href="#p6" />
<use fill="#ffffff" xlink:href="#p7" />
<use fill="#010408" xlink:href="#p8" />
<use fill="#010408" xlink:href="#p9" />
<use fill="#010408" xlink:href="#p10" />
<use fill="#b8bdc7" xlink:href="#p11" />
<use fill="#ffffff" xlink:href="#p12" />
<use fill="#ffffff" xlink:href="#p13" />
<use fill="#ffffff" xlink:href="#p14" />
<use fill="#ffffff" xlink:href="#p15" />
<use fill="#ffffff" xlink:href="#p16" />
<use fill="#ffffff" xlink:href="#p17" />
<use fill="#ffffff" xlink:href="#p18" />
<use fill="#ffffff" xlink:href="#p19" />
<use fill="#ffffff" xlink:href="#p20" />
<use fill="#ffffff" xlink:href="#p21" />
<use fill="#ffffff" xlink:href="#p22" />
<use fill="#ffffff" xlink:href="#p23" />
<use fill="#ffffff" xlink:href="#p24" />
<use fill="#ffffff" xlink:href="#p25" />
<use fill="#ffffff" xlink:href="#p26" />
<use fill="#ffffff" xlink:href="#p27" />
<use fill="#ffffff" xlink:href="#p28" />
<use fill="#010408" xlink:href="#p29" />
<use fill="#010408" xlink:href="#p30" />
<use fill="#010408" xlink:href="#p31" />
<use fill="#010408" xlink:href="#p32" />
<use fill="#010408" xlink:href="#p33" />
<use fill="#010408" xlink:href="#p34" />
<use fill="#010408" xlink:href="#p35" />
<use fill="#010408" xlink:href="#p36" />
<use fill="#010408" xlink:href="#p37" />
<use fill="#010408" xlink:href="#p38" />
<use fill="#010408" xlink:href="#p39" />
<use fill="#010408" xlink:href="#p40" />
<use fill="#a279e5" xlink:href="#p41" />
<use fill="#010408" xlink:href="#p42" />
<use fill="#b8bdc7" xlink:href="#p43" />
<use fill="#010408" xlink:href="#p44" />
<use fill="#ccadf9" xlink:href="#p45" />
<use fill="#ccadf9" xlink:href="#p46" />
<use fill="#ccadf9" xlink:href="#p47" />
<use fill="#010408" xlink:href="#p48" />
<use fill="#010408" xlink:href="#p49" />
<use fill="#010408" xlink:href="#p50" />
</g>
</svg>